<svg width="693" height="134" viewBox="0 0 693 134" fill="none" xmlns="http://www.w3.org/2000/svg">
<path d="M169.407 54.3922C177.051 54.3922 183.642 55.9912 189.18 59.1892C194.718 62.3872 198.969 66.9502 201.933 72.8782C204.975 78.8062 206.496 85.9042 206.496 94.1722C206.496 102.44 204.975 109.538 201.933 115.466C198.969 121.394 194.718 125.957 189.18 129.155C183.642 132.353 177.051 133.952 169.407 133.952C161.763 133.952 155.133 132.353 149.517 129.155C143.979 125.957 139.689 121.394 136.647 115.466C133.683 109.538 132.201 102.44 132.201 94.1722C132.201 85.9042 133.683 78.8062 136.647 72.8782C139.689 66.9502 143.979 62.3872 149.517 59.1892C155.133 55.9912 161.763 54.3922 169.407 54.3922ZM169.407 67.6132C165.039 67.6132 161.334 68.6272 158.292 70.6552C155.25 72.6832 152.91 75.6862 151.272 79.6642C149.712 83.5642 148.932 88.4002 148.932 94.1722C148.932 99.8662 149.712 104.702 151.272 108.68C152.91 112.658 155.25 115.661 158.292 117.689C161.334 119.717 165.039 120.731 169.407 120.731C173.697 120.731 177.363 119.717 180.405 117.689C183.447 115.661 185.748 112.658 187.308 108.68C188.946 104.702 189.765 99.8662 189.765 94.1722C189.765 88.4002 188.946 83.5642 187.308 79.6642C185.748 75.6862 183.447 72.6832 180.405 70.6552C177.363 68.6272 173.697 67.6132 169.407 67.6132Z" fill="#F5F5F5"/>
<path d="M295.925 74.2822H313.007L294.287 132.782H275.801L263.048 93.0022L250.763 132.782H232.277L213.557 74.2822H230.639L242.339 119.093L255.326 74.2822H271.238L284.342 119.093L295.925 74.2822Z" fill="#F5F5F5"/>
<path d="M338.744 48.6592V114.764C338.744 117.494 339.212 119.405 340.148 120.497C341.084 121.589 342.644 122.135 344.828 122.135C346.154 122.135 347.246 122.057 348.104 121.901C348.962 121.667 350.054 121.355 351.38 120.965L349.976 131.495C348.65 132.275 346.973 132.86 344.945 133.25C342.995 133.718 341.045 133.952 339.095 133.952C333.401 133.952 329.228 132.587 326.576 129.857C324.002 127.049 322.715 122.603 322.715 116.519V48.6592H338.744Z" fill="#F5F5F5"/>
<path d="M463.817 111.488C462.335 116.48 459.995 120.653 456.797 124.007C453.599 127.361 449.816 129.857 445.448 131.495C441.08 133.133 436.283 133.952 431.057 133.952C423.413 133.952 416.783 132.353 411.167 129.155C405.629 125.957 401.339 121.394 398.297 115.466C395.333 109.538 393.851 102.44 393.851 94.1722C393.851 85.9042 395.333 78.8062 398.297 72.8782C401.339 66.9502 405.629 62.3872 411.167 59.1892C416.783 55.9912 423.335 54.3922 430.823 54.3922C436.127 54.3922 440.924 55.1332 445.214 56.6152C449.504 58.0192 453.131 60.2032 456.095 63.1672C459.137 66.1312 461.36 69.8752 462.764 74.3992L448.139 80.6002C446.813 75.9202 444.785 72.6052 442.055 70.6552C439.325 68.6272 435.815 67.6132 431.525 67.6132C427.313 67.6132 423.608 68.6272 420.41 70.6552C417.29 72.6832 414.872 75.6862 413.156 79.6642C411.44 83.5642 410.582 88.4002 410.582 94.1722C410.582 99.8662 411.362 104.702 412.922 108.68C414.56 112.658 416.939 115.661 420.059 117.689C423.179 119.717 427.001 120.731 431.525 120.731C435.737 120.731 439.364 119.6 442.406 117.338C445.526 115.076 447.71 111.644 448.958 107.042L463.817 111.488Z" fill="#F2484B"/>
<path d="M502.617 73.1122C508.545 73.1122 513.732 74.3212 518.178 76.7392C522.702 79.1572 526.212 82.6282 528.708 87.1522C531.282 91.6762 532.569 97.1362 532.569 103.532C532.569 109.85 531.282 115.31 528.708 119.912C526.212 124.436 522.702 127.907 518.178 130.325C513.732 132.743 508.545 133.952 502.617 133.952C496.767 133.952 491.58 132.743 487.056 130.325C482.532 127.907 478.983 124.436 476.409 119.912C473.913 115.31 472.665 109.85 472.665 103.532C472.665 97.1362 473.913 91.6762 476.409 87.1522C478.983 82.6282 482.532 79.1572 487.056 76.7392C491.58 74.3212 496.767 73.1122 502.617 73.1122ZM502.617 85.0462C499.653 85.0462 497.118 85.7482 495.012 87.1522C492.984 88.4782 491.424 90.5062 490.332 93.2362C489.24 95.9662 488.694 99.3982 488.694 103.532C488.694 107.666 489.24 111.098 490.332 113.828C491.424 116.558 492.984 118.625 495.012 120.029C497.118 121.355 499.653 122.018 502.617 122.018C505.503 122.018 507.96 121.355 509.988 120.029C512.094 118.625 513.693 116.558 514.785 113.828C515.877 111.098 516.423 107.666 516.423 103.532C516.423 99.3982 515.877 95.9662 514.785 93.2362C513.693 90.5062 512.094 88.4782 509.988 87.1522C507.96 85.7482 505.503 85.0462 502.617 85.0462Z" fill="#F2484B"/>
<path d="M561.776 48.6592V114.764C561.776 117.494 562.244 119.405 563.18 120.497C564.116 121.589 565.676 122.135 567.86 122.135C569.186 122.135 570.278 122.057 571.136 121.901C571.994 121.667 573.086 121.355 574.412 120.965L573.008 131.495C571.682 132.275 570.005 132.86 567.977 133.25C566.027 133.718 564.077 133.952 562.127 133.952C556.433 133.952 552.26 132.587 549.608 129.857C547.034 127.049 545.747 122.603 545.747 116.519V48.6592H561.776Z" fill="#F2484B"/>
<path d="M610.019 73.1122C615.947 73.1122 621.134 74.3212 625.58 76.7392C630.104 79.1572 633.614 82.6282 636.11 87.1522C638.684 91.6762 639.971 97.1362 639.971 103.532C639.971 109.85 638.684 115.31 636.11 119.912C633.614 124.436 630.104 127.907 625.58 130.325C621.134 132.743 615.947 133.952 610.019 133.952C604.169 133.952 598.982 132.743 594.458 130.325C589.934 127.907 586.385 124.436 583.811 119.912C581.315 115.31 580.067 109.85 580.067 103.532C580.067 97.1362 581.315 91.6762 583.811 87.1522C586.385 82.6282 589.934 79.1572 594.458 76.7392C598.982 74.3212 604.169 73.1122 610.019 73.1122ZM610.019 85.0462C607.055 85.0462 604.52 85.7482 602.414 87.1522C600.386 88.4782 598.826 90.5062 597.734 93.2362C596.642 95.9662 596.096 99.3982 596.096 103.532C596.096 107.666 596.642 111.098 597.734 113.828C598.826 116.558 600.386 118.625 602.414 120.029C604.52 121.355 607.055 122.018 610.019 122.018C612.905 122.018 615.362 121.355 617.39 120.029C619.496 118.625 621.095 116.558 622.187 113.828C623.279 111.098 623.825 107.666 623.825 103.532C623.825 99.3982 623.279 95.9662 622.187 93.2362C621.095 90.5062 619.496 88.4782 617.39 87.1522C615.362 85.7482 612.905 85.0462 610.019 85.0462Z" fill="#F2484B"/>
<path d="M653.383 132.782V74.2822H667.306L668.359 85.7482C669.919 81.6922 672.181 78.5722 675.145 76.3882C678.187 74.2042 681.97 73.1122 686.494 73.1122C687.82 73.1122 689.029 73.2292 690.121 73.4632C691.213 73.6972 692.11 74.0092 692.812 74.3992L690.94 87.8542C690.16 87.5422 689.185 87.3082 688.015 87.1522C686.923 86.9962 685.48 86.9182 683.686 86.9182C681.346 86.9182 679.084 87.5032 676.9 88.6732C674.716 89.7652 672.922 91.4812 671.518 93.8212C670.114 96.0832 669.412 98.9692 669.412 102.479V132.782H653.383Z" fill="#F2484B"/>
<path d="M64.5985 130.629C64.5985 131.818 65.5623 132.782 66.7517 132.782C67.9412 132.782 68.905 131.818 68.905 130.629V119.128H64.5985V130.629Z" fill="#FF6E1D"/>
<path d="M72.6895 119.128V130.629C72.6895 131.818 73.6532 132.782 74.8427 132.782C76.0321 132.782 76.9959 131.818 76.9959 130.629V119.128H72.6895Z" fill="#FF6E1D"/>
<path d="M56.5075 130.629C56.5075 131.818 57.4713 132.782 58.6607 132.782C59.8502 132.782 60.814 131.818 60.814 130.629V119.128H56.5075V130.629Z" fill="#FF6E1D"/>
<path d="M20.0988 130.629C20.0988 131.818 21.0626 132.782 22.252 132.782C23.4414 132.782 24.4052 131.818 24.4052 130.629V119.128H20.0988V130.629Z" fill="#FF6E1D"/>
<path d="M28.1898 130.629C28.1898 131.818 29.1535 132.782 30.343 132.782C31.5324 132.782 32.4962 131.818 32.4962 130.629V119.128H28.1898V130.629Z" fill="#FF6E1D"/>
<path d="M12.0078 130.629C12.0078 131.818 12.9716 132.782 14.1611 132.782C15.3505 132.782 16.3143 131.818 16.3143 130.629V119.128H12.0078V130.629V130.629Z" fill="#FF6E1D"/>
<path d="M66.75 5.95439C60.2042 2.16758 52.6047 0 44.5 0C36.3953 0 28.7958 2.16758 22.25 5.95439C15.7042 2.16758 8.10474 0 0 0V44.5H89V0C80.8953 0 73.2958 2.16758 66.75 5.95439Z" fill="#F2484B"/>
<path d="M66.75 5.95438C54.0322 13.3112 45.2421 26.7821 44.5 42.3468C43.7579 26.7821 34.9678 13.3109 22.25 5.95438C8.94881 13.6486 0 28.0292 0 44.5L11.6533 120.506C11.6561 120.509 22.54 126.314 22.54 126.314L33.3779 120.379L44.5029 126.314L55.6279 120.379L66.7529 126.314L77.4357 120.615L89 44.5C89 28.0292 80.0512 13.6486 66.75 5.95438Z" fill="#F2EBD9"/>
<path d="M21.9801 44.5C27.9261 44.5 32.7462 39.6798 32.7462 33.7339C32.7462 27.7879 27.9261 22.9677 21.9801 22.9677C16.0341 22.9677 11.214 27.7879 11.214 33.7339C11.214 39.6798 16.0341 44.5 21.9801 44.5Z" fill="#FFCC75"/>
<path d="M67.0199 44.5C72.9659 44.5 77.786 39.6798 77.786 33.7339C77.786 27.7879 72.9659 22.9677 67.0199 22.9677C61.0739 22.9677 56.2538 27.7879 56.2538 33.7339C56.2538 39.6798 61.0739 44.5 67.0199 44.5Z" fill="#FFCC75"/>
<path d="M21.981 35.8871C23.1701 35.8871 24.1342 34.9231 24.1342 33.7339C24.1342 32.5447 23.1701 31.5806 21.981 31.5806C20.7918 31.5806 19.8277 32.5447 19.8277 33.7339C19.8277 34.9231 20.7918 35.8871 21.981 35.8871Z" fill="#082947"/>
<path d="M67.019 35.8871C68.2082 35.8871 69.1722 34.9231 69.1722 33.7339C69.1722 32.5447 68.2082 31.5806 67.019 31.5806C65.8298 31.5806 64.8658 32.5447 64.8658 33.7339C64.8658 34.9231 65.8298 35.8871 67.019 35.8871Z" fill="#082947"/>
<path d="M46.6013 99.6097C47.7904 99.6097 48.7545 98.6456 48.7545 97.4564C48.7545 96.2672 47.7904 95.3032 46.6013 95.3032C45.4121 95.3032 44.448 96.2672 44.448 97.4564C44.448 98.6456 45.4121 99.6097 46.6013 99.6097Z" fill="#FFCC75"/>
<path d="M55.2142 108.223C56.4034 108.223 57.3674 107.259 57.3674 106.069C57.3674 104.88 56.4034 103.916 55.2142 103.916C54.025 103.916 53.0609 104.88 53.0609 106.069C53.0609 107.259 54.025 108.223 55.2142 108.223Z" fill="#FFCC75"/>
<path d="M0 44.5V130.629C14.2739 121.612 23.7552 105.696 23.7552 87.5645C23.7552 69.4326 14.2739 53.5174 0 44.5Z" fill="#F2484B"/>
<path d="M65.2448 87.5645C65.2448 105.696 74.7264 121.612 89 130.629V44.5C74.7261 53.5174 65.2448 69.4326 65.2448 87.5645Z" fill="#F2484B"/>
</svg>
